<?xml version="1.0" encoding="UTF-8" standalone="no"?>
<svg
   xmlns:dc="http://purl.org/dc/elements/1.1/"
   xmlns:cc="http://creativecommons.org/ns#"
   xmlns:rdf="http://www.w3.org/1999/02/22-rdf-syntax-ns#"
   xmlns:svg="http://www.w3.org/2000/svg"
   xmlns="http://www.w3.org/2000/svg"
   xmlns:sodipodi="http://sodipodi.sourceforge.net/DTD/sodipodi-0.dtd"
   xmlns:inkscape="http://www.inkscape.org/namespaces/inkscape"
   version="1.1"
   id="Layer_1"
   x="0px"
   y="0px"
   width="603.06"
   height="250"
   viewBox="0 0 603.06 250"
   enable-background="new 0 0 603.06 186.019"
   xml:space="preserve"
   sodipodi:docname="logo.svg"
   inkscape:version="1.0.1 (0767f8302a, 2020-10-17)"><metadata
   id="metadata220"><rdf:RDF><cc:Work
       rdf:about=""><dc:format>image/svg+xml</dc:format><dc:type
         rdf:resource="http://purl.org/dc/dcmitype/StillImage" /><dc:title></dc:title></cc:Work></rdf:RDF></metadata><defs
   id="defs218" /><sodipodi:namedview
   pagecolor="#ffffff"
   bordercolor="#666666"
   borderopacity="1"
   objecttolerance="10"
   gridtolerance="10"
   guidetolerance="10"
   inkscape:pageopacity="0"
   inkscape:pageshadow="2"
   inkscape:window-width="1366"
   inkscape:window-height="704"
   id="namedview216"
   showgrid="false"
   inkscape:zoom="1.9351308"
   inkscape:cx="301.53"
   inkscape:cy="134.35037"
   inkscape:window-x="0"
   inkscape:window-y="27"
   inkscape:window-maximized="1"
   inkscape:current-layer="Layer_1" />
<g
   id="g213">
	<path
   d="m 105.64,117.43 c 3.313,0 6.278,1.396 8.197,4.361 l 4.885,-2.965 c -2.966,-4.885 -7.326,-7.152 -13.082,-7.152 -4.013,0 -7.327,0.871 -9.769,3.314 -3.314,2.441 -4.885,5.408 -4.885,9.244 0,5.234 4.013,9.07 11.164,12.559 l 3.489,1.396 c 5.232,2.441 8.197,5.408 8.197,9.246 l -2.441,6.801 -6.803,2.793 -6.803,-2.268 -2.443,-6.805 -6.278,1.396 c 0.522,4.012 1.918,7.326 4.884,9.77 2.966,2.266 6.279,3.836 10.116,3.836 4.361,0 8.199,-1.57 11.688,-4.361 l 4.361,-11.162 c 0,-6.281 -3.838,-11.164 -12.211,-14.479 l -3.838,-1.57 c -4.36,-1.918 -6.803,-4.361 -6.803,-7.152 0,-1.918 1.047,-3.488 2.966,-4.883 l 5.409,-1.919"
   id="path143" />
	<polyline
   points="140.352,118.301 152.039,118.301 152.039,112.545 122.037,112.545 122.037,118.301 134.073,118.301    134.073,161.91 140.352,161.91 140.352,118.301  "
   id="polyline145" />
	<path
   d="m 192.159,144.119 v -31.574 h -6.278 v 29.131 c 0,10.117 -4.013,15.352 -12.037,15.352 -7.85,0 -11.687,-5.234 -11.687,-15.352 v -29.131 h -6.28 v 31.574 c 0,5.232 1.396,10.115 4.884,13.605 3.315,3.314 7.676,5.232 13.083,5.232 5.757,0 10.118,-1.918 13.432,-5.232 3.313,-3.49 4.883,-8.372 4.883,-13.605"
   id="path147" />
	<path
   d="m 210.649,112.545 h -10.641 v 49.365 h 10.118 l -1.396,-5.756 h -2.441 V 118.3 h 2.441 c 15.352,0 23.201,6.455 23.201,19.016 0,12.559 -7.85,18.838 -23.201,18.838 l 1.396,5.756 c 8.198,0 15.002,-1.918 19.711,-6.279 5.407,-4.359 8.374,-10.641 8.374,-18.84 0,-7.85 -2.967,-14.129 -8.374,-18.49 -5.233,-3.836 -11.512,-5.756 -19.188,-5.756"
   id="path149" />
	<polyline
   points="250.247,112.545 243.966,112.545 243.966,161.91 250.247,161.91 250.247,112.545  "
   id="polyline151" />
	<path
   d="m 307.81,137.316 c 0,-7.328 -2.441,-13.084 -7.675,-17.967 -5.407,-5.408 -11.165,-7.676 -18.315,-7.676 -7.327,0 -13.083,2.268 -17.968,7.676 l 3.838,3.836 c 3.838,-3.836 8.722,-5.756 14.13,-5.756 5.756,0 10.64,1.92 14.478,5.756 3.314,3.838 5.233,8.723 5.233,14.131 0,5.232 -1.919,10.117 -5.757,13.955 -3.838,3.836 -8.721,5.756 -13.954,5.756 -5.408,0 -9.77,-1.92 -13.607,-5.756 -3.836,-3.838 -5.755,-8.723 -5.755,-13.955 0,-5.408 1.919,-10.293 5.232,-14.131 l -3.838,-3.836 c -5.407,4.883 -7.85,10.639 -7.85,17.967 0,7.15 2.442,13.43 7.85,18.314 4.885,4.885 10.641,7.326 17.968,7.326 7.15,0 13.431,-2.441 18.315,-7.326 5.234,-4.884 7.675,-11.163 7.675,-18.314"
   id="path153" />
	<path
   d="m 370.782,125.105 4.36,-3.838 c -5.407,-6.279 -11.688,-9.594 -19.887,-9.594 -7.15,0 -13.082,2.268 -18.314,7.676 -4.884,4.883 -7.326,10.639 -7.326,17.967 0,7.15 2.442,13.082 7.326,17.791 4.884,5.408 10.641,7.85 17.443,7.85 6.802,0 12.559,-2.441 16.92,-6.803 4.361,-4.362 6.803,-10.117 6.803,-16.92 v -1.918 h -19.885 v 5.232 h 13.082 l -5.407,10.814 -11.164,4.361 c -5.233,0 -9.594,-2.094 -13.432,-6.453 -3.837,-4.361 -5.931,-8.723 -5.931,-13.955 0,-5.408 2.094,-10.293 5.931,-14.131 3.838,-4.359 8.722,-6.279 13.954,-6.279 6.281,0.001 11.688,2.968 15.527,8.2"
   id="path155" />
	<polyline
   points="383.34,112.545 383.34,161.91 389.62,161.91 389.62,138.188 413.343,138.188 413.343,161.91 419.099,161.91    419.099,112.545 413.343,112.545 413.343,132.432 389.62,132.432 389.62,112.545 383.34,112.545  "
   id="polyline157" />
	<polyline
   points="434.101,161.91 434.101,112.545 427.822,112.545 427.822,161.91 434.101,161.91  "
   id="polyline159" />
	<path
   d="m 449.103,112.545 h -6.28 v 49.365 h 11.688 l 12.036,-2.789 c 3.488,-2.443 5.407,-6.455 5.407,-10.816 l -2.966,-8.199 c -1.919,-2.441 -4.361,-3.836 -7.152,-4.359 v -0.35 c 3.314,-1.57 5.233,-4.885 5.233,-9.246 0,-9.245 -5.756,-13.606 -17.966,-13.606 v 5.408 h 1.569 c 7.151,0 10.641,2.791 10.641,8.197 0,5.234 -3.489,8.199 -10.641,8.199 h -1.569 v 4.885 h 4.012 c 8.198,0 12.56,2.791 12.56,8.721 0,5.758 -3.839,8.723 -11.688,8.723 h -4.884 v -17.443 -4.885 -16.396"
   id="path161" />
	<polyline
   points="478.756,161.91 500.037,161.91 500.037,156.154 484.512,156.154 484.512,112.545 478.756,112.545 478.756,161.91     "
   id="polyline163" />
	<polyline
   points="509.631,161.91 509.631,112.545 503.352,112.545 503.352,161.91 509.631,161.91  "
   id="polyline165" />
	<path
   d="m 24.702,30.736 v 7.85 H 60.636 C 57.146,48.18 51.39,56.9 43.541,64.576 36.39,71.902 29.062,76.787 20.864,79.578 l 4.884,6.453 C 35.343,82.019 44.588,75.39 53.31,65.099 L 74.59,86.381 80.869,79.578 57.67,59.344 C 63.948,50.621 68.833,41.028 71.275,30.736 H 24.702"
   id="path167" />
	<path
   d="m 105.116,42.945 h 24.247 c -1.57,7.152 -4.361,13.084 -8.373,18.316 l -15.874,-10.117 -5.407,5.232 16.048,10.641 c -8.722,7.328 -18.49,12.211 -29.479,14.129 l 4.36,6.803 c 27.561,-6.279 43.957,-23.723 48.318,-51.807 h -29.479 l 3.838,-7.326 -8.199,-1.919 C 100.232,39.456 92.557,48.7 81.917,53.935 l 5.233,5.93 17.966,-16.92"
   id="path169" />
	<path
   d="m 198.439,43.295 -7.85,-3.314 c -4.361,13.082 -9.594,22.678 -16.746,28.084 -6.279,5.232 -16.571,8.199 -29.479,9.244 l 1.919,8.199 c 15.002,-1.57 25.991,-5.93 34.364,-12.559 6.628,-6.279 12.559,-16.049 17.792,-29.654"
   id="path171" />
	<polyline
   points="201.405,34.572 198.09,24.456 192.159,25.503 195.997,36.143 201.405,34.572  "
   id="polyline173" />
	<polyline
   points="143.317,45.213 140.352,52.541 159.714,60.215 162.679,52.541 143.317,45.213  "
   id="polyline175" />
	<path
   d="m 149.074,29.864 -3.313,7.152 c 6.803,1.918 13.082,4.361 19.361,7.326 l 3.314,-7.326 -19.362,-7.152"
   id="path177" />
	<polyline
   points="182.565,26.375 185.88,37.539 191.636,36.143 188.322,24.979 182.565,26.375  "
   id="polyline179" />
	<path
   d="m 275.366,29.864 -3.315,7.152 c 6.28,1.57 12.56,4.012 18.84,7.326 l 3.838,-7.326 -19.363,-7.152"
   id="path181" />
	<path
   d="m 269.609,45.213 -3.314,7.328 19.362,7.674 3.313,-7.674 c -3.836,-2.443 -10.116,-4.885 -19.361,-7.328"
   id="path183" />
	<path
   d="m 324.381,43.295 -7.327,-3.314 c -4.36,13.082 -10.116,22.678 -16.919,28.084 -6.28,5.232 -16.397,8.199 -29.48,9.244 l 1.919,8.199 c 15.002,-1.57 26.166,-5.93 33.84,-12.559 7.327,-6.279 13.083,-16.049 17.967,-29.654"
   id="path185" />
	<polyline
   points="321.939,36.143 327.696,34.572 324.381,24.456 318.451,25.503 321.939,36.143  "
   id="polyline187" />
	<polyline
   points="312.17,37.539 318.101,36.143 314.613,24.979 308.857,26.375 312.17,37.539  "
   id="polyline189" />
	<polyline
   points="392.586,32.654 389.62,23.061 383.865,24.456 386.829,34.225 392.586,32.654  "
   id="polyline191" />
	<path
   d="m 380.549,33.701 2.268,-0.523 -2.791,-9.594 -6.28,1.395 2.792,8.722 H 332.58 v 7.676 h 43.608 c -1.569,13.082 -6.803,23.199 -16.048,29.654 l -21.804,7.674 4.36,7.676 c 26.688,-5.756 40.644,-23.199 42.04,-52.68 h -4.187"
   id="path193" />
	<path
   d="m 442.474,28.817 h -8.373 v 29.48 c 0,8.373 -2.791,14.129 -8.548,17.443 l -22.328,4.36 2.443,7.85 16.396,-2.965 10.117,-4.885 c 6.803,-5.232 10.292,-13.43 10.292,-25.117 V 28.817"
   id="path195" />
	<polyline
   points="407.586,29.864 399.737,29.864 399.737,67.541 407.586,67.541 407.586,29.864  "
   id="polyline197" />
	<path
   d="m 464.278,41.9 6.279,-16.049 -7.325,-1.395 c -2.966,12.21 -8.199,21.282 -15.525,28.606 l 2.966,6.803 6.28,-6.277 v 35.758 h 7.325 V 41.9"
   id="path199" />
	<path
   d="m 479.28,24.456 c -2.442,10.64 -7.326,18.839 -13.605,25.118 l 4.36,6.455 10.641,-15.002 h 2.791 v 48.318 h 7.326 v -15 h 21.281 V 67.54 H 490.793 V 57.424 h 21.281 v -6.803 h -21.281 v -9.594 h 22.852 V 34.224 H 483.99 l 2.965,-8.722 -7.675,-1.046"
   id="path201" />
	<polyline
   points="526.203,26.898 526.203,51.145 573.649,51.145 573.649,26.898 566.846,33.178 566.846,44.865 533.354,44.865    533.354,33.178 566.846,33.178 573.649,26.898 526.203,26.898  "
   id="polyline203" />
	<polyline
   points="540.157,86.031 540.157,88.996 546.437,88.996 546.437,56.9 519.923,56.9 519.923,89.346 526.203,89.346    526.203,86.031 540.157,86.031 540.157,79.578 526.203,79.578 526.203,63.182 540.157,63.182 540.157,79.578  "
   id="polyline205" />
	<polyline
   points="573.126,86.031 573.126,89.346 579.929,89.346 579.929,56.9 551.844,56.9 551.844,89.346 558.648,89.346    558.648,86.031 558.648,79.578 558.648,63.182 573.126,63.182 573.126,79.578 558.648,79.578 558.648,86.031 573.126,86.031  "
   id="polyline207" />
	<path
   d="m 204.37,38.586 v 7.674 h 29.48 c -5.407,9.77 -15.002,19.363 -29.131,29.131 l 4.36,6.629 c 9.769,-6.279 17.444,-13.432 23.374,-20.758 l 6.105,-8.721 v 34.363 h 7.85 V 46.26 h 15.524 V 38.586 H 245.885 V 27.422 h -7.327 V 38.586 H 204.37"
   id="path209" />
	<polyline
   points="584.638,99.463 584.638,98.592 18.422,98.592 18.422,99.463 584.638,99.463  "
   id="polyline211" />
</g>
<g
   aria-label="TRIVIA GAME"
   id="text224"
   style="font-style:normal;font-weight:normal;font-size:40px;line-height:1.25;font-family:sans-serif;fill:#000000;fill-opacity:1;stroke:none"><path
     d="m 172.80225,183.68192 h 24.66796 v 3.32031 h -10.35156 v 25.83984 h -3.96484 v -25.83984 h -10.35156 z"
     style="font-style:normal;font-variant:normal;font-weight:normal;font-stretch:normal;font-family:Gubbi;-inkscape-font-specification:Gubbi;fill:#ff6600"
     id="path441" /><path
     d="m 215.12646,199.1702 q 1.26954,0.42968 2.46094,1.83593 1.21094,1.40625 2.42188,3.86719 l 4.0039,7.96875 h -4.23828 l -3.73047,-7.48047 q -1.44531,-2.92968 -2.8125,-3.88672 -1.34765,-0.95703 -3.6914,-0.95703 h -4.29688 v 12.32422 h -3.94531 v -29.16015 h 8.90625 q 5,0 7.46094,2.08984 2.46093,2.08984 2.46093,6.30859 0,2.75391 -1.28906,4.57032 -1.26953,1.8164 -3.71094,2.51953 z m -9.88281,-12.2461 v 10.35157 h 4.96094 q 2.85156,0 4.29687,-1.3086 1.46485,-1.32812 1.46485,-3.88672 0,-2.55859 -1.46485,-3.84765 -1.44531,-1.3086 -4.29687,-1.3086 z"
     style="font-style:normal;font-variant:normal;font-weight:normal;font-stretch:normal;font-family:Gubbi;-inkscape-font-specification:Gubbi;fill:#ff6600"
     id="path443" /><path
     d="m 229.11084,183.68192 h 3.94531 v 29.16015 h -3.94531 z"
     style="font-style:normal;font-variant:normal;font-weight:normal;font-stretch:normal;font-family:Gubbi;-inkscape-font-specification:Gubbi;fill:#ff6600"
     id="path445" /><path
     d="m 248.42725,212.84207 -11.13282,-29.16015 h 4.1211 l 9.23828,24.55078 9.25781,-24.55078 h 4.10156 l -11.11328,29.16015 z"
     style="font-style:normal;font-variant:normal;font-weight:normal;font-stretch:normal;font-family:Gubbi;-inkscape-font-specification:Gubbi;fill:#ff6600"
     id="path447" /><path
     d="m 268.25146,183.68192 h 3.94532 v 29.16015 h -3.94532 z"
     style="font-style:normal;font-variant:normal;font-weight:normal;font-stretch:normal;font-family:Gubbi;-inkscape-font-specification:Gubbi;fill:#ff6600"
     id="path449" /><path
     d="m 289.79443,187.56863 -5.35156,14.51172 h 10.72266 z m -2.22656,-3.88671 h 4.47266 l 11.11328,29.16015 h -4.10156 L 296.396,205.3616 h -13.14454 l -2.65625,7.48047 h -4.16015 z"
     style="font-style:normal;font-variant:normal;font-weight:normal;font-stretch:normal;font-family:Gubbi;-inkscape-font-specification:Gubbi;fill:#ff6600"
     id="path451" /><path
     d="m 340.00928,208.68192 v -7.83204 h -6.44532 v -3.24218 h 10.35157 v 12.51953 q -2.28516,1.62109 -5.03907,2.46094 -2.7539,0.82031 -5.8789,0.82031 -6.83594,0 -10.70313,-3.98438 -3.84765,-4.0039 -3.84765,-11.13281 0,-7.14844 3.84765,-11.13281 3.86719,-4.00391 10.70313,-4.00391 2.85156,0 5.41015,0.70313 2.57813,0.70312 4.7461,2.07031 v 4.19922 q -2.1875,-1.85547 -4.64844,-2.79297 -2.46094,-0.9375 -5.17578,-0.9375 -5.35156,0 -8.04688,2.98828 -2.67578,2.98828 -2.67578,8.90625 0,5.89844 2.67578,8.88672 2.69532,2.98828 8.04688,2.98828 2.08984,0 3.73047,-0.35156 1.64062,-0.3711 2.94922,-1.13281 z"
     style="font-style:normal;font-variant:normal;font-weight:normal;font-stretch:normal;font-family:Gubbi;-inkscape-font-specification:Gubbi;fill:#ff6600"
     id="path453" /><path
     d="m 360.88818,187.56863 -5.35156,14.51172 h 10.72266 z m -2.22656,-3.88671 h 4.47266 l 11.11328,29.16015 H 370.146 l -2.65625,-7.48047 h -13.14454 l -2.65625,7.48047 h -4.16015 z"
     style="font-style:normal;font-variant:normal;font-weight:normal;font-stretch:normal;font-family:Gubbi;-inkscape-font-specification:Gubbi;fill:#ff6600"
     id="path455" /><path
     d="m 378.48584,183.68192 h 5.87891 l 7.4414,19.84375 7.48047,-19.84375 h 5.87891 v 29.16015 h -3.84766 V 187.2366 l -7.51953,20 h -3.96484 l -7.51954,-20 v 25.60547 h -3.82812 z"
     style="font-style:normal;font-variant:normal;font-weight:normal;font-stretch:normal;font-family:Gubbi;-inkscape-font-specification:Gubbi;fill:#ff6600"
     id="path457" /><path
     d="m 413.01709,183.68192 h 18.4375 v 3.32031 H 416.9624 v 8.63281 h 13.88672 v 3.32031 H 416.9624 v 10.56641 h 14.84375 v 3.32031 h -18.78906 z"
     style="font-style:normal;font-variant:normal;font-weight:normal;font-stretch:normal;font-family:Gubbi;-inkscape-font-specification:Gubbi;fill:#ff6600"
     id="path459" /></g></svg>
