<?xml version="1.0" encoding="UTF-8" standalone="no"?>
<svg
   xmlns:dc="http://purl.org/dc/elements/1.1/"
   xmlns:cc="http://creativecommons.org/ns#"
   xmlns:rdf="http://www.w3.org/1999/02/22-rdf-syntax-ns#"
   xmlns:svg="http://www.w3.org/2000/svg"
   xmlns="http://www.w3.org/2000/svg"
   xmlns:sodipodi="http://sodipodi.sourceforge.net/DTD/sodipodi-0.dtd"
   xmlns:inkscape="http://www.inkscape.org/namespaces/inkscape"
   width="75.849594mm"
   height="73.642166mm"
   viewBox="0 0 75.849594 73.642166"
   version="1.1"
   id="svg8"
   inkscape:version="1.0.1 (0767f8302a, 2020-10-17)"
   sodipodi:docname="totoro-alert.svg">
  <defs
     id="defs2" />
  <sodipodi:namedview
     id="base"
     pagecolor="#ffffff"
     bordercolor="#666666"
     borderopacity="1.0"
     inkscape:pageopacity="0.0"
     inkscape:pageshadow="2"
     inkscape:zoom="0.98994949"
     inkscape:cx="404.75256"
     inkscape:cy="216.31054"
     inkscape:document-units="mm"
     inkscape:current-layer="layer1"
     inkscape:document-rotation="0"
     showgrid="false"
     fit-margin-top="0"
     fit-margin-left="0"
     fit-margin-right="0"
     fit-margin-bottom="0"
     inkscape:window-width="1366"
     inkscape:window-height="704"
     inkscape:window-x="0"
     inkscape:window-y="27"
     inkscape:window-maximized="1" />
  <metadata
     id="metadata5">
    <rdf:RDF>
      <cc:Work
         rdf:about="">
        <dc:format>image/svg+xml</dc:format>
        <dc:type
           rdf:resource="http://purl.org/dc/dcmitype/StillImage" />
        <dc:title></dc:title>
      </cc:Work>
    </rdf:RDF>
  </metadata>
  <g
     inkscape:label="Capa 1"
     inkscape:groupmode="layer"
     id="layer1"
     transform="translate(-11.726729,-40.482414)">
    <path
       style="fill:#000000;stroke-width:0.264583"
       d="m 47.263938,113.94829 c -1.16417,-0.0825 -1.97859,-0.2396 -1.80982,-0.34921 0.16877,-0.10962 0.52596,-0.13239 0.79375,-0.0506 0.2678,0.0818 0.0278,-0.10573 -0.53326,-0.41669 -0.56109,-0.31096 -1.5076,-0.61387 -2.10336,-0.67314 -0.59576,-0.0593 -1.25557,-0.28013 -1.46624,-0.49081 -0.31939,-0.31938 -0.3216,-0.37375 -0.0133,-0.32714 0.20335,0.0307 0.52894,0.15528 0.72352,0.27676 0.6817,0.42557 0.85868,-0.25528 0.22187,-0.85353 l -0.62198,-0.58432 -0.73296,0.57654 c -0.60637,0.47698 -1.18112,0.59812 -3.32815,0.70151 -2.2964,0.11058 -2.73546,0.0571 -3.81337,-0.46474 -0.7115,-0.34443 -1.40849,-0.51431 -1.67576,-0.40843 -0.25168,0.0997 -1.35057,0.27259 -2.44197,0.38421 -2.49022,0.25469 -3.42388,-0.15024 -4.95372,-2.14847 -1.90977,-2.49448 -2.33226,-4.88103 -1.51378,-8.55101 0.76631,-3.436068 1.24018,-5.183228 1.37045,-5.052948 0.11078,0.11078 -0.21751,1.88109 -0.62752,3.38383 -0.0904,0.33132 0.0358,0.43941 0.48613,0.41621 0.33452,-0.0173 0.78682,-0.15336 1.0051,-0.3025 0.32728,-0.2236 0.33888,-0.20612 0.0661,0.0997 -0.1819,0.20399 -0.33073,0.70426 -0.33073,1.111718 0,0.87604 -0.5196,1.0135 -0.55005,0.14552 -0.0115,-0.32742 -0.0809,-0.446488 -0.15434,-0.26458 -0.0734,0.1819 -0.28724,0.33072 -0.47521,0.33072 -0.45001,0 -0.67622,1.21981 -0.65624,3.53881 0.0121,1.41099 0.1741,2.2179 0.64388,3.20807 l 0.62764,1.32292 -0.0133,-2.29048 c -0.013,-2.25402 0.14139,-3.00619 0.56365,-2.74522 0.17364,0.10732 0.48939,-0.75606 0.64621,-1.76701 0.0422,-0.2718 1.90279,-1.57416 3.66611,-2.566108 1.05326,-0.59251 1.47124,-0.72749 1.36069,-0.43939 -0.0878,0.22871 -0.65282,0.63896 -1.25568,0.91168 -1.44282,0.652668 -3.32907,2.054908 -3.5288,2.623298 -0.0874,0.24882 -0.33734,0.86911 -0.55535,1.37843 -0.21801,0.50933 -0.44622,1.79559 -0.50714,2.85836 l -0.11077,1.93232 1.01519,1.01519 c 1.47377,1.47377 3.21249,1.88658 5.5097,1.30814 1.01441,-0.25543 1.13479,-0.35803 0.91091,-0.77636 -0.39594,-0.73981 -0.3117,-1.31613 0.42358,-2.89806 0.8475,-1.82336 1.50058,-2.52952 3.08549,-3.33629 l 1.25351,-0.63807 -0.43549,-1.12167 c -0.23952,-0.61693 -0.55913,-1.28116 -0.71023,-1.47608 -0.15111,-0.19492 -0.30653,-0.901438 -0.34538,-1.570048 -0.084,-1.44495 -0.23695,-1.91201 -0.62635,-1.91201 -0.15867,0 -0.20355,0.13746 -0.0997,0.30547 0.12064,0.19519 0.0722,0.23338 -0.13428,0.10579 -0.17768,-0.10981 -0.26553,-0.25719 -0.19522,-0.32751 0.0703,-0.0703 -0.10956,-0.36526 -0.39973,-0.65542 -0.29016,-0.29017 -0.46408,-0.69303 -0.38649,-0.89524 0.0776,-0.20222 -0.0588,-0.99669 -0.30304,-1.765484 -0.33497,-1.05423 -0.44311,-2.37334 -0.43996,-5.36657 l 0.004,-3.968747 1.34791,-3.96875 c 1.59648,-4.700673 2.31528,-6.291826 3.4747,-7.691671 0.47357,-0.57177 0.93456,-1.337236 1.02442,-1.701038 0.0899,-0.363802 0.48251,-1.137708 0.87254,-1.719791 0.39004,-0.582084 0.785,-1.266693 0.87769,-1.521355 0.0927,-0.254661 0.29936,-0.46302 0.45925,-0.46302 0.15989,0 0.22338,-0.212167 0.14107,-0.471483 -0.0839,-0.264215 0.25725,-1.320519 0.77592,-2.40281 0.50906,-1.062231 0.92557,-1.983426 0.92557,-2.0471 0,-0.158023 -1.04716,0.0883 -3.6653,0.862187 -1.21554,0.359299 -2.25807,0.605285 -2.31672,0.546634 -0.1331,-0.133104 5.18896,-1.779095 5.75244,-1.779095 0.50082,0 1.44567,-0.988766 1.18957,-1.244867 -0.10081,-0.100809 -1.45058,-0.04167 -2.99949,0.131413 -1.54891,0.173085 -2.86122,0.269685 -2.91624,0.214662 -0.25125,-0.251254 4.12973,-0.998294 5.23285,-0.892297 l 1.23741,0.118899 0.8595,-1.436979 c 0.47272,-0.79034 1.19187,-1.813081 1.59811,-2.27276 0.73601,-0.832827 2.62478,-2.110804 2.26912,-1.535324 -0.26123,0.422664 0.0134,0.377325 0.78777,-0.130046 1.03238,-0.676441 0.99888,-0.285395 -0.0613,0.715383 -0.55211,0.521182 -0.89347,0.714328 -0.80134,0.453411 0.24924,-0.705863 -0.2114,-0.785476 -0.992,-0.171452 -0.40846,0.321294 -0.64707,0.717859 -0.5633,0.936178 0.0799,0.208319 0.0411,0.314359 -0.0862,0.235643 -0.12736,-0.07872 -0.3787,0.03416 -0.55853,0.250841 -0.22963,0.276696 -0.23789,0.393962 -0.0277,0.393962 0.21549,0 0.20974,0.143285 -0.0206,0.512053 -0.17588,0.281628 -0.40391,0.460058 -0.50673,0.39651 -0.10283,-0.06355 -0.12928,0.104997 -0.0588,0.374544 0.0705,0.26955 -0.0597,0.677929 -0.28926,0.90751 -0.22958,0.229579 -0.41742,0.52423 -0.41742,0.654781 0,0.130548 -0.30924,0.526005 -0.68721,0.878795 -0.66205,0.61795 -1.85571,2.625807 -1.56103,2.625807 0.0791,0 -0.0493,0.294611 -0.2852,0.65469 -0.23593,0.360082 -0.44087,1.074457 -0.45541,1.5875 -0.0146,0.513046 -0.12191,0.93281 -0.23859,0.93281 -0.11668,0 -0.27593,-0.0043 -0.35389,-0.0094 -0.22748,-0.01516 -0.91659,0.742572 -0.91659,1.007875 0,0.133363 -0.23812,0.457975 -0.52917,0.721365 -0.29104,0.26339 -0.52916,0.659421 -0.52916,0.88007 0,0.22065 -0.20836,0.648679 -0.46302,0.95118 -0.46256,0.549444 -0.46242,0.549492 0.13229,0.04597 0.32742,-0.277214 0.59531,-0.664167 0.59531,-0.859895 0,-0.195726 0.12609,-0.355868 0.2802,-0.355868 0.15411,0 0.19524,-0.137459 0.0914,-0.305464 -0.11697,-0.189256 -0.0726,-0.233643 0.11668,-0.116676 0.168,0.103833 0.30546,0.04286 0.30546,-0.135509 0,-0.178363 0.064,-0.260307 0.1422,-0.182097 0.2916,0.2916 -1.63334,3.73117 -2.3737,4.241425 -0.15512,0.106913 -0.19391,0.196209 -0.0862,0.198437 0.35602,0.0074 -0.70281,1.062384 -1.06622,1.062384 -0.24232,0 -0.30246,-0.190002 -0.18845,-0.595312 0.12558,-0.44645 0.10129,-0.499187 -0.0971,-0.2109 -0.14551,0.211429 -0.20545,0.687679 -0.1332,1.058334 0.0765,0.392356 -0.042,0.895008 -0.28348,1.203087 -0.39327,0.501652 -0.40062,0.489426 -0.14131,-0.235133 0.45412,-1.268928 0.0774,-1.08766 -0.51292,0.246777 -0.60877,1.376214 -0.73377,2.203492 -0.18273,1.209381 0.22586,-0.40749 0.41555,-0.524658 0.5354,-0.330729 0.10209,0.165182 0.0823,0.300329 -0.044,0.300329 -0.30736,0 -1.91484,3.500297 -2.30175,5.012086 -0.1697,0.663094 -0.33397,2.455778 -0.36504,3.983745 -0.0311,1.52797 -0.19364,3.33625 -0.36126,4.0184 -0.23484,0.95569 -0.22902,1.57876 0.0254,2.7154 0.18156,0.81131 0.41092,1.425174 0.50969,1.364134 0.0988,-0.061 0.52938,0.35407 0.95693,0.92246 0.46256,0.61495 0.8492,0.91722 0.95475,0.74644 0.0976,-0.15786 0.25337,-0.27685 0.34624,-0.26442 0.0929,0.0124 0.26624,0.0226 0.38525,0.0226 0.20756,0 1.52705,-3.264144 2.17389,-5.377754 0.17037,-0.55667 0.25453,-1.38837 0.18704,-1.84822 -0.0747,-0.50898 0.1293,-1.51048 0.52141,-2.559749 0.84921,-2.272467 1.1475,-3.254145 1.02581,-3.375843 -0.0549,-0.05486 -0.30814,0.445924 -0.56284,1.112854 -0.25471,0.66693 -0.51013,1.165574 -0.5676,1.108099 -0.15537,-0.155369 1.16813,-3.565861 1.7508,-4.511596 0.27774,-0.450813 0.76103,-1.474504 1.07397,-2.274869 0.5327,-1.36243 1.34317,-2.674604 0.89881,-1.455208 -0.18957,0.520229 -0.18324,0.52075 0.37496,0.03078 0.31229,-0.274108 0.50913,-0.593304 0.43743,-0.709322 -0.0717,-0.116017 -0.007,-0.286924 0.14284,-0.379796 0.15027,-0.09287 0.20472,-0.279691 0.121,-0.415157 -0.0837,-0.135464 -0.0277,-0.246301 0.12441,-0.246301 0.15215,0 0.66519,-0.413811 1.1401,-0.919581 0.4749,-0.505766 1.57139,-1.339548 2.43665,-1.852845 1.63731,-0.971296 5.67276,-2.637525 5.88173,-2.428555 0.066,0.06599 -0.47204,0.316622 -1.19562,0.556956 -0.72358,0.240334 -1.61967,0.718773 -1.9913,1.063191 -0.41202,0.381844 -0.87454,0.574223 -1.18523,0.492977 -0.28023,-0.07328 -0.60202,0.01643 -0.71507,0.199353 -0.14958,0.242022 -0.0698,0.280517 0.2928,0.141359 0.70435,-0.270285 0.37095,0.01183 -1.2422,1.051126 -0.77025,0.496247 -1.30595,0.902269 -1.19043,0.902269 0.11552,0 -0.34099,0.625078 -1.01446,1.389063 -2.1408,2.428533 -5.02119,9.272754 -5.71658,13.583445 -0.18333,1.13647 -0.4089,1.85707 -0.52334,1.6719 -0.27244,-0.44083 -0.73981,1.29257 -0.93395,3.463924 -0.1343,1.50202 -0.0341,2.08488 0.79125,4.60287 0.90977,2.775548 1.47505,3.996218 2.35127,5.077328 2.53464,3.12734 3.33495,3.96538 4.56988,4.78533 1.48395,0.98529 1.76182,1.25229 0.9984,0.95933 -0.31969,-0.12267 -0.38096,-0.073 -0.2237,0.18148 0.14831,0.23997 0.11474,0.28749 -0.10649,0.15076 -0.17769,-0.10982 -0.25942,-0.26332 -0.18163,-0.34111 0.0778,-0.0778 -0.39713,-0.49818 -1.05539,-0.93419 -1.77385,-1.17495 -4.7751,-4.83466 -5.90927,-7.20575 -0.27844,-0.58209 -0.6649,-1.772708 -0.8588,-2.645838 -0.2878,-1.29588 -0.36714,-1.43841 -0.43187,-0.7759 -0.0436,0.44638 0.21069,1.61055 0.56514,2.587048 0.40125,1.10542 0.51072,1.66446 0.29008,1.48134 -0.48296,-0.40082 -1.17279,-2.867188 -1.17279,-4.193108 0,-1.21566 -0.12178,-1.28344 -1.0391,-0.57833 -0.71039,0.54606 -0.91872,1.51405 -0.37108,1.7242 0.19352,0.0743 0.35185,0.36986 0.35185,0.65688 0,0.28702 0.11906,0.595438 0.26458,0.685368 0.14552,0.0899 0.26458,0.625 0.26458,1.18902 0,0.56402 0.13577,1.36067 0.30171,1.77032 l 0.30172,0.74483 0.20108,-0.66146 c 0.17436,-0.57356 0.20459,-0.52528 0.22745,0.36331 0.0329,1.27671 1.41664,3.86544 2.43046,4.54683 0.40808,0.27427 0.68968,0.55096 0.62577,0.61487 -0.0639,0.0639 -0.37237,-0.11128 -0.68548,-0.3893 -1.25467,-1.11408 -0.004,0.53625 1.54653,2.04011 l 1.53306,1.48727 2.28628,0.044 c 1.78255,0.0343 2.37925,-0.049 2.70821,-0.37792 0.44632,-0.44632 1.14527,-0.42904 2.94301,0.0728 0.58208,0.16248 2.37872,0.42986 3.99254,0.59419 8.05245,0.81992 15.97541,-1.45707 21.10749,-6.06609 1.34549,-1.20836 3.82003,-4.75417 4.27612,-6.12732 0.51782,-1.559028 0.82104,-1.580448 0.40314,-0.0285 -0.54454,2.02227 -3.72563,5.87323 -6.42982,7.78381 -0.83674,0.59118 -1.52135,1.16224 -1.52135,1.26902 0,0.10678 -0.35719,0.3421 -0.79375,0.52293 -1.0056,0.41653 -0.99603,0.5747 0.0662,1.09307 0.8983,0.43841 3.33002,0.49318 4.29947,0.0969 0.47618,-0.19466 0.46704,-0.14808 -0.0912,0.46511 -0.92124,1.01187 -1.68899,1.09429 -3.47471,0.373 -1.21334,-0.49009 -1.59474,-0.55415 -1.69795,-0.28519 -0.0843,0.21969 0.007,0.29293 0.25029,0.19974 0.21087,-0.0809 0.3834,-0.0153 0.3834,0.14577 0,0.29785 -1.11281,0.4148 -1.38233,0.14528 -0.25688,-0.25688 0.10691,-1.17718 0.39496,-0.99916 0.15957,0.0986 0.19624,0.0421 0.0872,-0.13429 -0.13701,-0.2217 -0.41676,-0.1863 -1.02876,0.13018 -1.22077,0.63128 -5.63637,1.64513 -8.46122,1.94275 -1.34318,0.14151 -4.16854,0.2669 -6.27859,0.27865 -3.00673,0.0168 -3.6934,0.0836 -3.175,0.30913 0.64651,0.28128 0.63754,0.29252 -0.39688,0.49715 -1.15042,0.22759 -2.79918,0.22567 -6.08542,-0.007 z m 4.83173,-0.72858 c -0.25297,-0.0662 -0.72922,-0.0686 -1.05833,-0.005 -0.32912,0.0633 -0.12215,0.11747 0.45993,0.12041 0.58208,0.003 0.85136,-0.0488 0.5984,-0.11507 z m -0.92913,-0.52261 c -0.1819,-0.0734 -0.47955,-0.0734 -0.66146,0 -0.1819,0.0734 -0.0331,0.13346 0.33073,0.13346 0.36381,0 0.51263,-0.0601 0.33073,-0.13346 z m 3.10886,0.073 c 0,-0.22106 -1.59502,-0.32087 -1.91208,-0.11965 -0.20207,0.12825 0.11311,0.21543 0.7876,0.21786 0.61846,0.002 1.12448,-0.042 1.12448,-0.0982 z m -2.4033,-0.52336 c -0.0606,-0.053 -0.4079,-0.25113 -0.7717,-0.44019 -0.60505,-0.31443 -0.6305,-0.3062 -0.29834,0.0965 0.19972,0.24211 0.54699,0.44019 0.77171,0.44019 0.22471,0 0.35896,-0.0434 0.29833,-0.0965 z m -14.90412,-1.86941 c 1.67022,-0.0721 4.14611,-0.51386 4.54423,-0.81074 0.038,-0.0283 -0.51101,-0.93325 -1.22004,-2.0109 -0.70903,-1.07765 -1.54695,-2.46682 -1.86204,-3.08702 l -0.5729,-1.12766 -0.85289,0.43026 c -1.09528,0.55252 -2.2539,1.63085 -2.72861,2.53951 -0.45315,0.86742 -0.47154,1.09731 -0.0678,0.84777 0.19078,-0.1179 0.23358,-0.0725 0.11401,0.121 -0.1053,0.17037 -0.28981,0.24899 -0.41003,0.17469 -0.29924,-0.18494 -0.53861,0.51918 -0.53861,1.5844 0,0.96094 0.60142,1.77425 1.15493,1.56185 0.19022,-0.073 1.28811,-0.17342 2.43974,-0.22316 z m 0.63867,-10.866428 c 0,-0.21828 -0.11533,-0.39687 -0.25628,-0.39687 -0.14096,0 -0.18775,0.17859 -0.10399,0.39687 0.0838,0.21828 0.19909,0.39688 0.25628,0.39688 0.0572,0 0.10399,-0.1786 0.10399,-0.39688 z m -0.66146,-2.51354 c 0.0899,-0.14552 -0.0291,-0.26458 -0.26459,-0.26458 -0.23545,0 -0.35452,0.11906 -0.26458,0.26458 0.0899,0.14552 0.209,0.26458 0.26458,0.26458 0.0556,0 0.17465,-0.11906 0.26459,-0.26458 z m -2.77093,-10.318754 c -0.16656,-0.705503 -0.21709,-0.35894 -0.21219,1.45521 0.006,2.24078 0.0189,2.29541 0.21862,0.92604 0.11671,-0.80036 0.11381,-1.87193 -0.006,-2.38125 z m 0.16803,-2.182812 c -0.0734,-0.181901 -0.13345,-0.03307 -0.13345,0.33073 0,0.363802 0.06,0.51263 0.13345,0.330729 0.0734,-0.181901 0.0734,-0.479557 0,-0.661459 z m 12.12533,-9.4338 c 0.5835,-0.641062 0.9373,-1.117312 0.78622,-1.058334 -0.43423,0.169535 -2.39564,2.420221 -2.74508,3.149947 -0.26514,0.553707 -0.2178,0.532156 0.29061,-0.132292 0.33405,-0.436562 1.08476,-1.318257 1.66825,-1.959321 z m 3.02323,-2.839016 c 0.36309,-0.317675 -0.49809,-0.02265 -0.91957,0.315018 -0.48427,0.387977 -0.47583,0.393485 0.14787,0.09645 0.3638,-0.17326 0.71106,-0.358421 0.7717,-0.411468 z m -6.61519,-6.843329 c 0.008,-0.145521 -0.10086,-0.08599 -0.24193,0.132291 -0.14107,0.218282 -0.24994,0.575469 -0.24194,0.79375 0.0153,0.419061 0.45632,-0.424862 0.48387,-0.926041 z m 25.15807,47.841019 c 0.3638,-0.0559 1.61396,-0.20079 2.77812,-0.32204 2.02621,-0.21104 2.05232,-0.22197 0.61093,-0.25566 -1.81289,-0.0424 -2.22719,-0.43759 -0.67672,-0.64555 0.61264,-0.0822 1.17573,-0.0529 1.25131,0.0649 0.0756,0.1179 0.55412,0.30259 1.06344,0.41044 0.50933,0.10784 1.07076,0.31256 1.24762,0.45491 0.17977,0.14469 0.79234,0.1793 1.38906,0.0785 0.70329,-0.11882 1.06749,-0.0821 1.06749,0.10749 0,0.19807 -1.46458,0.27547 -4.69635,0.2482 -2.583,-0.0218 -4.3987,-0.0854 -4.0349,-0.14122 z m 3.1746,-1.77083 c 0.36358,-0.21245 0.71085,-0.33647 0.7717,-0.27562 0.16428,0.16427 -0.0344,0.2894 -0.7713,0.48569 l -0.66146,0.17619 z m -57.74467,-0.42464 c -1.53328,-1.20608 -2.14821,-5.01908 -1.45157,-9.00079 0.42579,-2.433648 1.06327,-4.233328 1.49952,-4.233328 0.15049,0 0.58139,0.60735 0.95755,1.34966 0.37616,0.74232 0.55174,1.267968 0.39018,1.168118 -0.16155,-0.0998 -0.48024,-0.647658 -0.70819,-1.217368 -0.22795,-0.5697 -0.51215,-1.03583 -0.63154,-1.03583 -0.24149,0 -0.9087,2.193358 -1.17217,3.853338 -0.15462,0.97418 -0.10711,1.10416 0.50573,1.38338 0.67078,0.30563 0.89771,0.94527 0.43648,1.23033 -0.13195,0.0816 -0.18188,-0.0736 -0.11097,-0.34478 0.0799,-0.3055 -0.0417,-0.55854 -0.31979,-0.66523 -0.37166,-0.14262 -0.42932,-0.04 -0.33575,0.59754 0.0874,0.59564 0.025,0.73595 -0.27615,0.6204 -0.32872,-0.12614 -0.36456,0.14381 -0.23084,1.73882 0.21055,2.51145 0.96145,4.18721 2.09739,4.68073 0.47918,0.20818 0.67893,0.38317 0.44389,0.38887 -0.23503,0.006 -0.72723,-0.22554 -1.09377,-0.51386 z m 4.26367,-0.004 c 1.5084,-0.12765 2.90739,-0.29535 3.10885,-0.37266 0.62808,-0.24101 0.41695,-1.90573 -0.80521,-6.34905 -0.64432,-2.34254 -1.24425,-4.701458 -1.33316,-5.242058 -0.27007,-1.64206 -0.419,-1.59473 -2.46853,0.78446 -0.28205,0.327428 -0.59736,0.595318 -0.70069,0.595318 -0.10332,0 0.37159,-0.654848 1.05536,-1.455208 0.68378,-0.80037 1.39291,-1.45521 1.57586,-1.45521 0.40049,0 0.79245,0.9585 1.17957,2.884518 0.158,0.78613 0.70137,2.89891 1.20748,4.69507 1.03968,3.68978 1.18244,5.49188 0.45718,5.77144 -0.25466,0.0982 -1.71317,0.2228 -3.24114,0.27698 l -2.77813,0.0985 z m 25.42344,-1.34624 c -0.16243,-0.3035 -0.24549,-0.60166 -0.18458,-0.66257 0.0609,-0.0609 0.2466,0.18741 0.41264,0.55182 0.36461,0.80025 0.18708,0.88646 -0.22806,0.11075 z m 38.10697,-2.48407 c 0.73201,-0.96711 1.51139,-2.10738 1.73197,-2.53393 0.82052,-1.58671 1.94105,-4.800228 1.80104,-5.165098 -0.0797,-0.20766 -0.0218,-0.37757 0.1286,-0.37757 0.51342,0 0.45715,0.924588 -0.15297,2.513538 -1.46352,3.8115 -2.6273,5.74618 -4.07788,6.77908 -0.62712,0.44655 -0.52657,0.23174 0.56924,-1.21602 z m -39.15444,0.76489 c -8e-4,-0.13339 -0.38806,-0.66361 -0.86082,-1.17825 -0.70624,-0.76882 -0.82958,-1.07556 -0.6915,-1.71979 0.15449,-0.72077 0.17091,-0.73067 0.20341,-0.12262 0.0338,0.63221 0.54396,1.7355 0.55237,1.19455 0.002,-0.14337 0.24925,0.19682 0.54894,0.75598 0.29969,0.55915 0.47828,1.08325 0.39688,1.16465 -0.0814,0.0814 -0.14859,0.0389 -0.14928,-0.0945 z m -2.04868,-3.68212 c 0.003,-0.58208 0.0571,-0.78905 0.12041,-0.45993 0.0633,0.32911 0.0609,0.80536 -0.005,1.05833 -0.0662,0.25297 -0.11801,-0.0163 -0.11507,-0.5984 z m -24.04813,0 c -0.25221,-0.65725 0.11962,-1.23472 0.73601,-1.14303 0.72834,0.10833 1.25176,0.88521 0.86021,1.27676 -0.19772,0.19772 -0.2741,0.10463 -0.25863,-0.31519 0.0141,-0.38255 -0.15661,-0.63182 -0.47695,-0.69649 -0.41058,-0.0829 -0.47562,0.021 -0.36742,0.58706 0.14012,0.73302 -0.23798,0.95602 -0.49322,0.29089 z m 15.46658,-2.57121 c 0.14109,-0.14109 0.47754,-0.20969 0.74766,-0.15244 0.36375,0.0771 0.29722,0.14364 -0.25654,0.25655 -0.48282,0.0984 -0.65679,0.0616 -0.49112,-0.10411 z m 1.17628,-2.513438 c 0.40218,-0.0608 0.99749,-0.0592 1.32291,0.004 0.32543,0.0628 -0.004,0.11256 -0.73124,0.11057 -0.7276,-0.002 -0.99386,-0.0534 -0.59167,-0.11418 z m -4.03854,-0.32398 c 0,-0.13693 0.1177,-0.32171 0.26156,-0.41062 0.14998,-0.0927 0.19433,0.0135 0.10398,0.24897 -0.17589,0.45837 -0.36554,0.54223 -0.36554,0.16165 z m 4.28249,-0.29473 c -0.68464,-0.27458 -0.54902,-0.77922 0.20941,-0.77922 0.93609,0 1.37211,0.29063 1.03871,0.69236 -0.34677,0.41782 -0.41164,0.42234 -1.24812,0.0869 z m -5.93613,-0.53227 c -0.47092,-0.27791 -0.67043,-1.83445 -0.23513,-1.83445 0.12534,0 0.1753,0.27513 0.11102,0.61141 -0.0704,0.36811 0.0609,0.75894 0.3299,0.98219 0.38911,0.32293 0.49432,0.30579 0.81503,-0.1328 0.5273,-0.72113 0.45587,-1.17804 -0.22707,-1.45255 l -0.59532,-0.23929 0.60362,-0.0168 c 0.74193,-0.0206 0.98035,0.52289 0.65619,1.49586 -0.27023,0.8111 -0.75033,1.00416 -1.45824,0.5864 z m 56.1787,-0.40129 c 0.0127,-0.30822 0.0754,-0.37092 0.15985,-0.15985 0.0764,0.19099 0.067,0.4192 -0.0209,0.50712 -0.0879,0.0879 -0.15045,-0.0684 -0.13896,-0.34727 z m -52.01152,-0.37483 c 0.0899,-0.14552 0.21603,-0.26458 0.2802,-0.26458 0.0642,0 0.11668,0.11906 0.11668,0.26458 0,0.14553 -0.12609,0.26459 -0.2802,0.26459 -0.15411,0 -0.20661,-0.11906 -0.11668,-0.26459 z m 1.24355,-0.3175 c -0.74779,-0.74778 -0.0799,-2.26055 0.84187,-1.90683 0.57555,0.22086 0.83489,1.33734 0.42527,1.8309 -0.39496,0.47589 -0.84048,0.50259 -1.26714,0.0759 z m 1.10346,-0.53596 c 0.18961,-0.30059 0.16628,-0.54783 -0.0796,-0.84415 -0.43399,-0.52292 -0.91873,-0.54925 -0.72304,-0.0393 0.0802,0.20888 0.0119,0.42438 -0.15158,0.47889 -0.16791,0.056 -0.21896,0.30331 -0.11729,0.56826 0.20496,0.53413 0.67683,0.46203 1.07155,-0.16373 z m -6.05117,0.3243 c -0.0899,-0.14552 -0.0445,-0.26459 0.10106,-0.26459 0.14552,0 0.33817,0.11907 0.4281,0.26459 0.0899,0.14552 0.0445,0.26458 -0.10106,0.26458 -0.14552,0 -0.33816,-0.11906 -0.4281,-0.26458 z m 55.96414,-0.13229 c -0.0293,-0.14552 -0.0442,-1.01792 -0.0331,-1.93866 0.0441,-3.680504 -1.55902,-12.238646 -2.13186,-11.380928 -0.15958,0.23895 -0.19389,0.138769 -0.10493,-0.306462 0.0898,-0.449725 -0.26753,-1.465156 -1.11645,-3.172219 -1.13705,-2.286479 -1.33131,-2.530586 -2.17463,-2.732691 -0.50932,-0.122063 -1.03915,-0.331673 -1.17739,-0.465801 -0.34312,-0.332904 -1.64928,-0.307311 -2.30799,0.04522 -0.39681,0.212368 -0.62042,0.207354 -0.8425,-0.01889 -0.16628,-0.169397 -0.18326,-0.280262 -0.0377,-0.246369 0.14552,0.03389 0.61254,-0.08152 1.03781,-0.256482 0.42528,-0.174961 0.9313,-0.257453 1.12448,-0.183322 0.19319,0.07413 0.35125,0.02201 0.35125,-0.115821 0,-0.296077 1.2468,0.195471 1.91823,0.756258 0.68332,0.57072 0.59302,-0.02894 -0.2259,-1.500261 -0.60017,-1.07831 -0.61425,-1.152539 -0.10933,-0.576281 0.31877,0.363802 0.50269,0.51263 0.40872,0.330729 -0.094,-0.181901 -0.0606,-0.330729 0.074,-0.330729 0.13471,0 0.50288,0.620712 0.81816,1.379362 0.31528,0.758651 1.01337,2.157635 1.5513,3.108855 0.89198,1.577273 1.49839,2.934927 1.77701,3.978449 0.0583,0.218282 0.40416,1.408907 0.76862,2.645834 0.75689,2.568785 1.1597,8.060085 0.73752,10.054169 -0.13864,0.65485 -0.27601,1.07156 -0.30528,0.92604 z m 1.38933,-0.0511 c 0.25743,-0.0671 0.61462,-0.0627 0.79375,0.01 0.17913,0.0725 -0.0315,0.12736 -0.46806,0.12197 -0.43656,-0.005 -0.58312,-0.0647 -0.32569,-0.13177 z m -59.07326,-0.84358 c 0,-0.51075 1.73211,-1.883014 2.8633,-2.268454 2.67752,-0.91232 2.18283,-0.10969 -0.56636,0.918914 -0.91662,0.34295 -1.53842,0.74773 -1.63993,1.06756 -0.16292,0.51331 -0.65701,0.72537 -0.65701,0.28198 z m 60.94767,-0.78821 c 0.63477,-3.329184 0.78689,-7.081324 0.45474,-11.216845 -0.1894,-2.358297 -0.51063,-4.944999 -0.71383,-5.748226 -0.48163,-1.903799 -2.4194,-5.803882 -3.88164,-7.812421 -1.61243,-2.214846 -1.84599,-2.717001 -1.64106,-3.528362 l 0.17755,-0.702961 0.34114,0.661459 c 0.18762,0.363802 0.42782,0.959114 0.53377,1.322916 0.18856,0.647467 0.18335,0.650267 -0.2462,0.132292 -0.43079,-0.519462 -0.43355,-0.518247 -0.15035,0.06615 0.15867,0.327422 0.40336,0.595312 0.54376,0.595312 0.1404,0 0.25528,0.107098 0.25528,0.237996 0,0.130897 0.42941,0.875038 0.95425,1.653646 2.32462,3.448618 3.33477,6.211532 3.91973,10.721062 0.68811,5.304728 0.39952,13.475252 -0.5055,14.311892 -0.11614,0.10736 -0.13488,-0.2049 -0.0416,-0.69391 z m -61.47469,-0.43381 c -0.72678,-1.668654 -0.60082,-5.548344 0.14116,-4.347804 0.14017,0.22681 0.0945,0.26147 -0.14739,0.11194 -0.25774,-0.15929 -0.30354,-0.0944 -0.17318,0.24534 0.0975,0.25406 0.17908,0.54148 0.18131,0.63872 0.002,0.0972 0.10638,0.0153 0.23144,-0.18207 0.15587,-0.24599 0.32831,0.0869 0.54822,1.05834 0.17645,0.77945 0.37799,1.62556 0.44785,1.88022 0.0798,0.291044 -0.0198,0.463024 -0.26829,0.463024 -0.21742,0 -0.44482,0.20836 -0.50535,0.46302 -0.085,0.35775 -0.18865,0.28255 -0.45577,-0.33073 z m 7.04199,-1.068564 c -0.0907,-0.23646 -0.15743,-0.56902 -0.1482,-0.73902 0.009,-0.17 0.13084,-0.0239 0.27027,0.32464 0.13942,0.34855 0.20611,0.6811 0.1482,0.73901 -0.0579,0.0579 -0.17953,-0.0882 -0.27027,-0.32463 z m -0.42956,-1.9585 c 0,-0.42798 0.0942,-0.83635 0.20929,-0.90749 0.11511,-0.0711 0.16161,0.27902 0.10334,0.77814 -0.12981,1.11196 -0.31263,1.1876 -0.31263,0.12935 z m 8.24386,0.24896 c 0,-0.3638 0.06,-0.51263 0.13345,-0.33072 0.0734,0.1819 0.0734,0.47955 0,0.66145 -0.0734,0.1819 -0.13345,0.0331 -0.13345,-0.33073 z m -7.31149,-1.30297 c -0.0958,-0.30201 -0.28532,-0.54911 -0.42103,-0.54911 -0.13571,0 -0.24675,-0.11906 -0.24675,-0.26458 0,-0.14552 0.12201,-0.26459 0.27113,-0.26459 0.28664,0 0.8836,1.31472 0.68647,1.51185 -0.0635,0.0635 -0.19396,-0.13156 -0.28982,-0.43357 z m 10.67246,-5.320412 c 0.34355,-0.286199 0.74656,-0.520364 0.89558,-0.520364 0.14903,0 -0.0318,0.238125 -0.40177,0.529167 -0.86946,0.683916 -1.31577,0.67596 -0.49381,-0.0088 z m 1.58857,0.155607 c 0.48965,-0.226264 1.26356,-0.428284 1.71979,-0.448934 0.76732,-0.03473 0.75016,-0.05175 -0.22881,-0.227037 l -1.05834,-0.189492 1.05834,-0.01117 c 0.58208,-0.0061 1.35599,0.07893 1.71979,0.18905 l 0.66146,0.200223 -0.66146,0.153861 c -0.3638,0.08462 -1.13771,0.214574 -1.71979,0.288779 -0.58209,0.07421 -1.35599,0.207188 -1.71979,0.295516 -0.44865,0.108924 -0.37503,0.02824 0.22881,-0.250796 z m 11.08521,-0.8631 c 0.32912,-0.06329 0.80537,-0.06088 1.05833,0.0053 0.25297,0.06622 -0.0163,0.118004 -0.5984,0.115067 -0.58208,-0.0029 -0.78905,-0.05712 -0.45993,-0.120407 z m 1.91514,-0.490963 c -0.67441,-0.25517 -0.77253,-0.354431 -0.3611,-0.365308 0.31071,-0.0082 0.96555,0.159001 1.45521,0.371586 1.13191,0.491429 0.20732,0.486124 -1.09411,-0.0063 z m 9.78959,-0.380241 c 0.3638,-0.28457 0.75075,-0.520046 0.85989,-0.523282 0.10914,-0.0032 0.25797,-0.0059 0.33073,-0.0059 0.0728,0 0.12348,0.08465 0.11271,0.188108 -0.0108,0.103457 0.19759,0.279884 0.46302,0.39206 0.29267,0.123684 0.0974,0.155188 -0.49617,0.08005 -0.53833,-0.06815 -1.05138,-0.0065 -1.1401,0.137107 -0.0887,0.143555 -0.30312,0.258363 -0.47643,0.255127 -0.17331,-0.0032 -0.0175,-0.238723 0.34635,-0.523293 z m 4.10104,-0.529167 c -0.34892,-0.149934 -0.39398,-0.232344 -0.13229,-0.241935 0.21828,-0.008 0.57547,0.10087 0.79375,0.241935 0.48365,0.312558 0.0659,0.312558 -0.66146,0 z m 6.15156,-0.175228 c 0.1819,-0.0734 0.47955,-0.0734 0.66146,0 0.1819,0.0734 0.0331,0.133453 -0.33073,0.133453 -0.36381,0 -0.51263,-0.06006 -0.33073,-0.133453 z m -31.59795,-4.51893 c 0.71444,-0.814731 1.92146,-1.315654 2.84395,-1.180258 1.02716,0.150754 0.76065,0.394477 -1.07777,0.985641 -0.80036,0.257363 -1.6338,0.530313 -1.85208,0.606552 -0.29925,0.104519 -0.27812,0.0032 0.0859,-0.411935 z m 17.50889,-1.294267 c -0.78295,-0.292137 -1.28218,-0.328123 -1.91861,-0.138298 -0.57783,0.172347 -0.80584,0.16851 -0.69447,-0.0117 0.15466,-0.250248 -0.13439,-0.199636 -1.48796,0.260536 -0.27072,0.09203 -0.31277,0.04667 -0.1323,-0.142711 0.59932,-0.628878 2.64181,-1.080313 3.85899,-0.852919 1.66475,0.311007 2.7334,0.819533 2.30009,1.09451 -0.44629,0.283207 -0.67091,0.258778 -1.92574,-0.209431 z m 10.58333,-4.61881 c -1.01864,-0.559451 -2.60383,-1.271427 -3.52263,-1.582169 -0.9188,-0.310743 -1.62295,-0.61259 -1.56477,-0.670769 0.27966,-0.279651 5.48542,1.969532 7.07178,3.055406 0.89497,0.612621 -0.25325,0.148283 -1.98438,-0.802468 z m -21.00591,-1.669434 c 0.21584,-0.23037 3.97951,-1.266052 4.11359,-1.131972 0.0581,0.05813 -0.64169,0.308925 -1.55516,0.557316 -0.91347,0.248388 -1.89898,0.517903 -2.19002,0.598921 -0.29104,0.08102 -0.45683,0.0701 -0.36841,-0.02426 z m 14.19289,-0.333976 c 0.1819,-0.0734 0.47956,-0.0734 0.66146,0 0.1819,0.0734 0.0331,0.133454 -0.33073,0.133454 -0.3638,0 -0.51263,-0.06006 -0.33073,-0.133454 z M 61.356088,69.8227 c 0.32911,-0.06329 0.80536,-0.06088 1.05833,0.0053 0.25296,0.06622 -0.0163,0.118005 -0.5984,0.115068 -0.58208,-0.0029 -0.78905,-0.05712 -0.45993,-0.120407 z m -17.39944,-2.077445 c 0,-0.22687 0.121,-0.337704 0.2689,-0.246301 0.14789,0.0914 0.2004,0.277024 0.11667,0.412491 -0.22681,0.366988 -0.38557,0.298559 -0.38557,-0.16619 z m 36.59514,-1.727639 c 0.1541,-0.488609 -1.24726,-3.393774 -1.86986,-3.876408 -0.23271,-0.180396 -0.3467,-0.40441 -0.2533,-0.497808 0.26606,-0.266065 -0.33393,-1.194009 -0.64694,-1.000557 -0.17726,0.109554 -0.22021,-0.01445 -0.11731,-0.338674 0.20165,-0.635336 -1.39784,-3.352999 -2.85673,-4.853816 -0.56721,-0.583509 -0.97037,-1.121857 -0.8959,-1.196324 0.25355,-0.253545 3.12935,3.09616 3.80813,4.435668 l 0.67624,1.334503 1.36724,-0.177009 c 0.75198,-0.09736 2.26021,-0.228685 3.35162,-0.291841 1.95705,-0.113249 1.94522,-0.108257 -0.85935,0.362673 -1.56404,0.262628 -2.9063,0.540088 -2.98279,0.616577 -0.0765,0.07649 -0.064,0.334708 0.0278,0.573818 0.14143,0.368577 0.63233,0.434744 3.22532,0.434744 3.21441,0 4.05274,0.204619 1.11221,0.271463 -0.94258,0.02143 -2.28083,0.103716 -2.9739,0.182861 -1.07144,0.122357 -1.19414,0.192146 -0.81947,0.466109 0.24235,0.177215 0.36494,0.44469 0.27242,0.594394 -0.11041,0.178657 0.75937,0.288169 2.5312,0.318696 1.48467,0.02559 2.75265,0.09975 2.81772,0.164828 0.0651,0.06507 -1.09215,0.118316 -2.57161,0.118316 -1.47946,0 -2.68993,0.04499 -2.68993,0.09998 0,0.05499 0.17038,0.507743 0.37861,1.006123 0.26619,0.637074 0.29806,1.019855 0.10733,1.289082 -0.2285,0.322553 -0.25037,0.316656 -0.13871,-0.0374 z m -1.63731,-5.074177 c -0.26131,-0.25936 -0.2917,-0.22897 -0.14812,0.148114 0.0994,0.260937 0.2473,0.407781 0.32877,0.326319 0.0815,-0.08146 1.7e-4,-0.294955 -0.18065,-0.474433 z m -38.92658,3.642432 c 0.50932,-0.196139 1.16416,-0.357712 1.4552,-0.359048 0.29105,-0.0013 -0.007,0.166394 -0.66145,0.372732 -1.49526,0.471146 -2.02885,0.461947 -0.79375,-0.01368 z m 22.68802,-0.836687 c 0.1819,-0.0734 0.47955,-0.0734 0.66146,0 0.1819,0.0734 0.0331,0.133453 -0.33073,0.133453 -0.36381,0 -0.51263,-0.06006 -0.33073,-0.133453 z m -9.45886,-1.922878 c 1.90546,-0.381008 2.91042,-1.367025 2.91042,-2.855558 0,-1.334757 -0.76663,-1.925502 -2.49879,-1.925502 -1.7937,0 -2.76256,0.716735 -3.06037,2.263976 l -0.20082,1.043315 -0.0304,-0.909669 c -0.0328,-0.979286 0.86524,-2.560868 1.55199,-2.733418 0.22108,-0.05555 1.14404,-0.0283 2.05102,0.06056 1.93343,0.189415 2.4308,0.650828 2.44357,2.266884 0.014,1.774309 -1.37351,3.069347 -3.2196,3.005008 l -0.87303,-0.03043 z m -2.11666,-0.283144 c -0.35278,-0.227983 -0.35278,-0.256479 0,-0.256479 0.21828,0 0.57547,0.115414 0.79375,0.256479 0.35277,0.227984 0.35277,0.256479 0,0.256479 -0.21828,0 -0.57547,-0.115413 -0.79375,-0.256479 z m 18.87239,-0.121115 c -1.09185,-0.474949 -1.50415,-1.283116 -1.32729,-2.601685 0.19698,-1.468628 0.97157,-2.174558 2.37214,-2.161879 1.76329,0.01595 2.54664,0.331885 3.10872,1.25376 0.74592,1.223357 0.66696,2.203701 -0.25145,3.122104 -0.62178,0.621787 -0.99782,0.771369 -1.91822,0.763043 -0.62966,-0.0057 -1.52241,-0.174601 -1.9839,-0.375343 z m 3.76151,-0.528318 c 1.2941,-1.294103 0.50569,-3.317229 -1.50356,-3.858265 -2.1247,-0.572122 -3.54745,0.474194 -3.35262,2.465581 0.17995,1.839396 3.46683,2.78203 4.85618,1.392684 z m -3.25317,-0.848712 c -0.45908,-0.18524 -0.41514,-1.542007 0.0628,-1.938641 0.21642,-0.179621 0.57361,-0.257466 0.79375,-0.172993 0.47908,0.183843 0.53509,1.517007 0.0827,1.969363 -0.3384,0.338394 -0.42189,0.351041 -0.93927,0.142271 z m -9.32657,0.697847 c 0,-0.635643 2.9494,-1.101707 3.30729,-0.522618 0.0899,0.145521 0.42439,0.276452 0.74322,0.290957 0.53965,0.02455 0.534,0.04101 -0.0818,0.238209 -0.98717,0.316151 -3.96875,0.31123 -3.96875,-0.0066 z m -7.83589,-0.904039 c -0.28747,-0.749147 0.0188,-1.338371 0.69577,-1.338371 0.54877,0 0.67158,0.142557 0.74074,0.859896 0.0743,0.770509 0.0115,0.859896 -0.60362,0.859896 -0.37759,0 -0.75238,-0.171638 -0.83289,-0.381421 z m -3.52442,-5.883534 c -0.009,-0.171509 -0.1656,-0.474192 -0.3475,-0.672632 -0.73155,-0.798073 -2.71426,-4.29214 -3.27707,-5.775097 -0.63635,-1.67671 -0.669,-6.141781 -0.0495,-6.761842 0.41544,-0.415784 0.51492,-0.387814 1.55746,0.437893 2.60771,2.065344 5.63476,6.659496 5.93043,9.000595 l 0.14807,1.172496 -0.39777,-1.394314 c -0.45151,-1.582643 -0.86274,-2.434307 -2.13817,-4.42812 -1.10488,-1.7272 -4.26735,-4.977472 -4.62684,-4.755296 -0.14528,0.08979 -0.17729,0.303782 -0.0711,0.475541 0.22896,0.370464 0.11916,1.812702 -0.16026,2.105057 -0.10774,0.112723 -0.048,1.134192 0.1327,2.269935 0.26679,1.676659 0.5834,2.496394 1.68363,4.359111 0.74527,1.261768 1.45675,2.294128 1.58107,2.294128 0.38317,0 0.54287,0.762145 0.29101,1.388768 -0.13167,0.327584 -0.24694,0.455282 -0.25616,0.283777 z m 4.48115,-1.602849 c 0,-0.299971 0.21257,-0.475599 0.59531,-0.491852 0.32742,-0.01392 1.30969,-0.231651 2.18281,-0.483876 2.41578,-0.697865 6.93566,-0.839639 9.65729,-0.302921 1.23693,0.243927 2.5802,0.572228 2.98505,0.729551 0.40485,0.157324 0.80294,0.219192 0.88465,0.137481 0.0817,-0.08171 0.17327,-1.08 0.20347,-2.218426 0.0448,-1.687399 0.19366,-2.33875 0.80585,-3.52507 2.00373,-3.882917 4.72184,-6.168308 5.91598,-4.974167 0.4511,0.451103 0.39737,3.551328 -0.1036,5.977509 -0.36328,1.759371 -1.97526,5.346658 -2.40256,5.346658 -0.0728,0 0.29208,-0.758859 0.81077,-1.686354 1.08399,-1.938358 1.85171,-5.609269 1.68722,-8.067537 -0.0844,-1.260741 -0.18342,-1.503161 -0.64166,-1.570321 -0.34585,-0.05069 -0.70186,0.164693 -0.98401,0.595312 -0.24316,0.371104 -0.57688,0.674733 -0.7416,0.674733 -0.16472,0 -0.0735,-0.26789 0.20265,-0.595312 0.42705,-0.506292 0.38974,-0.496401 -0.24945,0.06615 -0.41337,0.363802 -0.98939,1.018645 -1.28005,1.455208 -0.47151,0.708178 -0.44454,0.696738 0.25012,-0.106132 0.50394,-0.582442 0.84425,-0.79365 0.96472,-0.598737 0.10236,0.165629 -0.0659,0.570575 -0.3738,0.89988 -0.98669,1.055095 -2.1116,2.918547 -2.39324,3.964506 -0.15045,0.558702 -0.37881,0.950759 -0.50749,0.871233 -0.38275,-0.236553 -0.49098,0.176605 -0.57309,2.187681 -0.0429,1.050333 -0.10724,1.909694 -0.14303,1.909694 -0.0358,0 -0.57525,-0.165587 -1.1988,-0.367969 -0.62354,-0.202383 -1.31232,-0.370941 -1.5306,-0.374574 -0.21828,-0.0036 -1.28843,-0.202734 -2.37812,-0.442449 -1.41962,-0.312298 -2.54464,-0.386665 -3.96875,-0.26235 -2.4832,0.216768 -5.50454,0.811715 -6.73677,1.326573 -0.86925,0.363196 -0.93927,0.357669 -0.93927,-0.07412 z m 18.23188,-6.750425 c 0.32818,-0.545704 0.53716,-0.992188 0.4644,-0.992188 -0.1713,0 -1.23378,1.716767 -1.23378,1.993556 0,0.26412 0.0383,0.214231 0.76938,-1.001368 z"
       id="path38" />
  </g>
</svg>
