<?xml version="1.0" encoding="UTF-8" standalone="no"?>
<svg
   xmlns:dc="http://purl.org/dc/elements/1.1/"
   xmlns:cc="http://creativecommons.org/ns#"
   xmlns:rdf="http://www.w3.org/1999/02/22-rdf-syntax-ns#"
   xmlns:svg="http://www.w3.org/2000/svg"
   xmlns="http://www.w3.org/2000/svg"
   xmlns:sodipodi="http://sodipodi.sourceforge.net/DTD/sodipodi-0.dtd"
   xmlns:inkscape="http://www.inkscape.org/namespaces/inkscape"
   width="112.11365mm"
   height="103.04998mm"
   viewBox="0 0 112.11365 103.04998"
   version="1.1"
   id="svg8"
   sodipodi:docname="kodama-alert.svg"
   inkscape:version="1.0.1 (0767f8302a, 2020-10-17)">
  <defs
     id="defs2" />
  <sodipodi:namedview
     id="base"
     pagecolor="#ffffff"
     bordercolor="#666666"
     borderopacity="1.0"
     inkscape:pageopacity="0.0"
     inkscape:pageshadow="2"
     inkscape:zoom="0.49497475"
     inkscape:cx="486.38565"
     inkscape:cy="259.00665"
     inkscape:document-units="mm"
     inkscape:current-layer="layer1"
     inkscape:document-rotation="0"
     showgrid="false"
     inkscape:window-width="1366"
     inkscape:window-height="704"
     inkscape:window-x="0"
     inkscape:window-y="27"
     inkscape:window-maximized="1"
     fit-margin-top="0"
     fit-margin-left="0"
     fit-margin-right="0"
     fit-margin-bottom="0" />
  <metadata
     id="metadata5">
    <rdf:RDF>
      <cc:Work
         rdf:about="">
        <dc:format>image/svg+xml</dc:format>
        <dc:type
           rdf:resource="http://purl.org/dc/dcmitype/StillImage" />
        <dc:title></dc:title>
      </cc:Work>
    </rdf:RDF>
  </metadata>
  <g
     inkscape:label="Capa 1"
     inkscape:groupmode="layer"
     id="layer1"
     transform="translate(-37.799015,-11.952453)">
    <path
       style="fill:#000000;stroke-width:0.264583"
       d="m 90.583389,114.88945 c -0.57592,-0.17675 -0.66146,-0.35511 -0.66146,-1.37925 v -1.17624 l -2.51354,-0.16588 c -2.84059,-0.18746 -6.66143,-0.90336 -7.715698,-1.44567 -2.50604,-1.28908 -2.439704,-4.74855 0.138536,-7.22481 0.887392,-0.85229 0.916792,-0.93576 0.567482,-1.61125 -0.610019,-1.17965 -1.010077,-4.189287 -0.842117,-6.335267 0.287454,-3.67269 1.719147,-6.58307 4.560147,-9.26997 0.80822,-0.76439 1.433,-1.42189 1.38839,-1.46112 -0.0446,-0.0392 -0.73596,-0.39754 -1.53632,-0.79623 -6.13032,-3.05378 -8.250162,-6.69136 -7.857306,-13.48287 0.319087,-5.51623 2.251287,-9.44265 6.722316,-13.66039 5.3093,-5.008528 11.73591,-6.56931 18.332901,-4.452379 5.32283,1.708057 9.48871,5.900469 11.5969,11.670749 0.66175,1.81126 0.70623,2.21628 0.70623,6.43092 v 4.49792 l -0.86376,1.82389 c -1.7975,3.79559 -5.021,7.37382 -7.45392,8.27422 -0.66403,0.24575 -1.25338,0.48168 -1.30968,0.52428 -0.0563,0.0426 0.40379,0.85434 1.02242,1.80384 2.52418,3.87426 3.24724,7.61126 2.16323,11.18015 -0.30759,1.01266 -0.79974,2.146927 -1.09367,2.520597 -0.71158,0.90462 -0.6761,1.13451 0.2332,1.51115 1.71374,0.70985 2.30062,2.11437 1.824,4.36516 -0.77316,3.6512 -7.94251,7.5125 -14.734931,7.936 -1.10654,0.069 -2.30955,0.0341 -2.67335,-0.0776 z m 6.68985,-2.01818 c 5.927501,-1.54009 9.714321,-4.16585 9.714321,-6.73585 0,-1.24506 -0.56239,-2.01844 -1.75368,-2.4116 -2.13377,-0.70421 -5.290091,0.55537 -8.812371,3.51673 -2.1457,1.804 -5.65522,5.93782 -5.39648,6.35646 0.24086,0.38973 3.34085,0.0297 6.24821,-0.72574 z m -5.0838,-3.23391 c 1.2674,-1.37497 1.49114,-1.06191 -2.29232,-3.20746 -2.92005,-1.65592 -4.03242,-2.14289 -5.92831,-2.59531 -1.32669,-0.31659 -1.55022,-0.30127 -2.53098,0.17347 -2.119788,1.0261 -2.972521,4.18434 -1.437771,5.32504 0.750351,0.5577 3.989651,1.22997 7.215181,1.4974 3.28181,0.2721 3.7206,0.16685 4.9742,-1.19314 z m 2.36163,-3.32267 c -0.001,-1.07141 0.11037,-1.23061 2.36046,-3.37344 3.281341,-3.124927 3.459241,-3.475177 3.460451,-6.813017 l 9.9e-4,-2.71198 h 0.66146 0.66146 v 2.78867 c 0,3.54159 -0.3363,4.255767 -3.404801,7.230477 l -2.28374,2.21395 1.9297,-1.242 c 1.06134,-0.6831 2.760581,-1.54876 3.776091,-1.92368 2.23499,-0.82516 3.47223,-2.06354 4.06886,-4.072587 0.52837,-1.77922 0.52518,-4.24598 -0.008,-6.07129 -0.53159,-1.82034 -1.99206,-4.46956 -3.04383,-5.52133 l -0.81054,-0.81054 -5.469751,-0.009 c -3.00837,-0.005 -6.30319,-0.11736 -7.32184,-0.25022 -1.76335,-0.22999 -1.90061,-0.20815 -2.86505,0.45592 -2.41973,1.66612 -4.32355,4.47614 -5.11256,7.54609 -0.53581,2.08479 -0.35319,5.83662 0.35439,7.280617 0.41467,0.84624 0.6404,1.005 1.6701,1.17458 0.65484,0.10783 1.87911,0.45236 2.72059,0.7656 0.84149,0.31324 1.61495,0.48455 1.71882,0.38068 0.10387,-0.10386 -0.55485,-0.84553 -1.46382,-1.64814 l -1.65268,-1.4593 0.002,-1.760777 c 0.004,-3.28919 0.87528,-6.71455 1.86391,-7.32556 0.53513,-0.33073 0.53456,0.07 -0.004,3.06289 -0.54591,3.03116 -0.70643,5.809187 -0.33576,5.809187 0.11164,0 0.82602,0.54502 1.5875,1.21115 1.19568,1.04595 1.38501,1.34367 1.38812,2.18281 0.004,0.94825 0.0657,1.00805 2.57968,2.48157 1.41686,0.83044 2.66539,1.51505 2.77453,1.52135 0.10914,0.006 0.19796,-0.49456 0.19737,-1.11302 z m 9.790651,-22.302587 c 1.13655,-0.39082 1.89309,-0.93684 3.45483,-2.49344 2.22924,-2.2219 3.69491,-4.76455 4.22876,-7.33609 0.48458,-2.33422 0.20744,-7.49159 -0.51619,-9.6059 -1.34625,-3.93352 -4.62742,-7.99138 -7.85114,-9.709604 -3.973611,-2.117916 -8.940641,-2.613536 -12.999051,-1.297075 -2.83939,0.921041 -5.56415,2.763449 -8.18235,5.532699 -2.332051,2.46658 -3.172539,3.8515 -4.20496,6.92871 -1.268187,3.77995 -1.180004,8.92058 0.199404,11.62445 1.397206,2.73875 5.800726,5.62272 9.958096,6.5218 3.25679,0.70431 13.698921,0.59568 15.912601,-0.16555 z m -9.695801,-3.75093 c -0.75727,-0.13826 -1.46772,-0.95618 -1.27248,-1.46496 0.20301,-0.52903 0.94757,-0.71772 2.84974,-0.72218 2.36123,-0.006 3.33485,0.82524 1.96698,1.67842 -0.6359,0.39662 -2.6079,0.67967 -3.54424,0.50872 z m 9.108331,-4.05964 c -1.10264,-0.64267 -1.18739,-3.84296 -0.15599,-5.89006 0.60421,-1.1992 2.24401,-2.07889 3.33253,-1.78778 1.04094,0.2784 1.7314,1.38982 1.71078,2.75385 -0.0209,1.38059 -1.19344,3.95447 -2.1411,4.6999 -0.6925,0.54472 -2.01144,0.65235 -2.74622,0.22409 z m -21.204971,-4.50032 c -0.54342,-0.42746 -0.69714,-0.77936 -0.69714,-1.596 0,-3.05574 2.65217,-5.01709 4.40883,-3.26044 0.60825,0.60826 0.66756,0.8379 0.5579,2.16026 -0.10692,1.28937 -0.24654,1.59314 -1.08562,2.3621 -1.13018,1.03573 -2.15523,1.14329 -3.18397,0.33408 z m 12.9478,-1.4549 c -0.22868,-0.22868 -0.41577,-0.44696 -0.41577,-0.48507 0,-0.0381 0.71437,-0.0693 1.5875,-0.0693 0.87312,0 1.5875,0.0754 1.5875,0.16757 0,0.8043 -2.05382,1.0922 -2.75923,0.3868 z M 124.5091,111.33847 c -1.60137,-1.70458 -2.08687,-4.25245 -2.30595,-12.101387 -0.0833,-2.98317 -0.21896,-6.53545 -0.30154,-7.89394 l -0.15016,-2.46998 -0.62949,0.92638 c -0.79213,1.16572 -2.01198,1.51311 -2.80218,0.79799 -1.64938,-1.49267 -2.11654,-4.0881 -2.10221,-11.67927 0.0119,-6.31102 0.18809,-8.04404 1.1308,-11.12424 1.22945,-4.01708 3.34321,-6.94059 7.14414,-9.88096 l 2.1197,-1.63978 -1.53103,-0.77418 c -3.48524,-1.762342 -8.03615,-6.066862 -11.89574,-11.25169 -3.56051,-4.783058 -4.47201,-6.978309 -4.79441,-11.546784 -0.18764,-2.658891 0.41139,-4.939703 2.17276,-8.272694 2.9675,-5.615348 7.13187,-9.271969 12.56696,-11.034721 3.85321,-1.249703 5.88634,-1.555342 9.35183,-1.40586 3.48836,0.150469 5.05259,0.662559 7.95635,2.604711 4.2845,2.865645 8.0447,7.840868 9.00502,11.914777 0.64741,2.746454 0.53173,7.345587 -0.27719,11.020673 -0.94895,4.311245 -0.94668,6.916047 0.009,9.917216 l 0.7369,2.314935 -0.7043,1.439524 c -1.33798,2.734749 -4.65797,5.085973 -8.61838,6.103573 -0.94589,0.24303 -1.76462,0.48602 -1.8194,0.53997 -0.0548,0.054 0.95724,1.16239 2.24895,2.46319 1.29172,1.30081 2.73755,3.01136 3.21297,3.80123 1.18264,1.96486 2.60336,5.52726 3.43504,8.6132 0.61547,2.2837 0.69479,3.07602 0.70778,7.06986 0.0132,4.05302 -0.0435,4.64185 -0.57269,5.95312 -0.77546,1.92134 -1.91564,3.26171 -3.37587,3.9686 l -1.19095,0.57652 -0.005,4.27588 c -0.013,10.578747 -2.19219,15.659957 -6.86106,15.997677 -1.40133,0.10136 -1.60047,0.0446 -2.42347,-0.69054 l -0.89667,-0.80097 -0.1323,-5.95303 c -0.0728,-3.274167 -0.2106,-6.031317 -0.30631,-6.127007 -0.0957,-0.0957 -0.24953,0.75761 -0.34183,1.89621 -0.27696,3.416827 -0.66675,5.375127 -1.48889,7.480197 -1.72681,4.42148 -4.62713,6.72099 -6.27059,4.9716 z m 2.7204,-1.70378 c 1.90843,-1.85345 3.55889,-6.43218 3.56665,-9.894667 0.002,-0.96031 0.0809,-2.65695 0.17502,-3.77031 0.15647,-1.85097 0.22048,-2.02429 0.74763,-2.02429 0.85279,0 1.62475,0.99336 2.12745,2.73763 0.34049,1.1814 0.45677,2.7664 0.49205,6.706657 0.0425,4.75015 0.0865,5.18908 0.55351,5.53059 1.0701,0.78248 2.8137,0.30864 4.14627,-1.12678 0.97917,-1.05474 1.39785,-1.98863 2.11604,-4.71998 0.59171,-2.25028 0.62524,-2.80326 0.60961,-10.054157 -0.0207,-9.63408 -0.66298,-14.95399 -2.4961,-20.67663 -1.09085,-3.4054 -0.78222,-4.30179 0.64228,-1.86543 1.23353,2.10974 2.61729,9.08111 3.20086,16.12591 0.1202,1.45112 0.27332,2.05052 0.5238,2.05052 0.61174,0 2.04318,-1.65718 2.74111,-3.17339 0.57065,-1.23969 0.68696,-1.93486 0.78038,-4.66415 0.12307,-3.59528 -0.23837,-5.90606 -1.58727,-10.14779 -1.37916,-4.33689 -2.6048,-6.37273 -5.83467,-9.6916 l -2.85958,-2.93839 -2.57422,-0.14424 c -1.41582,-0.0793 -3.37028,-0.3575 -4.34323,-0.61816 l -1.76901,-0.47392 -2.52694,1.92443 c -3.2543,2.47837 -4.43838,3.84887 -5.85447,6.77617 -1.79652,3.7137 -2.23725,6.4157 -2.22931,13.6676 0.004,3.25136 0.12433,6.42251 0.26838,7.047 0.30569,1.32524 1.28109,3.49477 1.57121,3.49477 0.46719,0 1.63212,-2.25268 2.15106,-4.15959 0.30805,-1.13196 0.64422,-2.17718 0.74704,-2.3227 0.10282,-0.14552 0.20557,-0.57214 0.22832,-0.94803 0.0228,-0.3759 0.47636,-2.16184 1.00801,-3.96876 0.53165,-1.80691 1.18245,-4.25793 1.44622,-5.44671 0.75671,-3.41039 1.76132,-4.42036 1.63795,-1.6467 -0.0709,1.59384 -2.5692,10.72935 -3.10357,11.34874 -0.26811,0.31078 -0.32056,2.03281 -0.24178,7.9375 0.17914,13.426837 0.65856,18.128147 1.9949,19.562537 0.67654,0.72618 0.77208,0.70487 1.9444,-0.43368 z m 11.37724,-53.369027 c 3.71415,-0.65366 6.2376,-1.967266 8.40053,-4.372958 1.4664,-1.630992 1.57869,-2.388304 0.67763,-4.570304 -0.84359,-2.042843 -0.81449,-6.289995 0.0667,-9.733233 0.54585,-2.132907 0.64116,-3.114545 0.62943,-6.482292 -0.0128,-3.6792 -0.0667,-4.103873 -0.73774,-5.820833 -0.98395,-2.517407 -2.25945,-4.368129 -4.64597,-6.741178 -2.22519,-2.212632 -4.24334,-3.645751 -6.40443,-4.547874 -1.2542,-0.523554 -1.89223,-0.596564 -5.26366,-0.602317 -3.44259,-0.0059 -4.09201,0.06944 -6.32568,0.733632 -3.12459,0.929103 -4.6836,1.70485 -7.0782,3.522049 -3.16934,2.405127 -5.49769,5.493481 -7.16087,9.498265 -0.89461,2.154142 -0.98332,2.588331 -0.97092,4.752006 0.0147,2.563324 0.53717,4.99513 1.53484,7.143751 0.90183,1.942216 4.4081,6.505493 7.27562,9.468927 4.39048,4.537334 7.37451,6.410553 11.85058,7.439169 3.38742,0.77843 5.12856,0.84532 8.15215,0.31319 z m -3.86772,-1.772945 c -1.49089,-1.49089 0.80671,-4.423844 3.00635,-3.837697 1.02685,0.27363 1.33947,0.61631 1.31597,1.442527 -0.0305,1.073735 -0.69399,2.024647 -1.76833,2.534452 -1.19261,0.565933 -1.88662,0.528084 -2.55399,-0.139282 z M 117.4386,40.511748 c -0.29104,-0.120383 -0.78913,-0.499787 -1.10686,-0.843124 -2.50522,-2.707137 -0.5066,-7.386164 3.00092,-7.025534 2.89548,0.297701 4.73048,3.766008 3.25534,6.152846 -0.93179,1.507662 -3.54639,2.378863 -5.1494,1.715812 z m 10.98021,-3.841827 c 0,-0.06902 0.34818,-0.305546 0.77373,-0.525608 0.42555,-0.220062 1.19842,-0.848196 1.71749,-1.395857 0.51908,-0.547661 0.9448,-0.835522 0.94607,-0.639694 0.004,0.691103 -0.91078,1.889234 -1.74586,2.285506 -0.82,0.389117 -1.69143,0.531132 -1.69143,0.275653 z m 8.5434,-5.95058 c -1.9107,-1.16501 -2.99924,-4.280622 -2.10187,-6.015944 1.88174,-3.638869 6.19425,-2.898877 7.43393,1.275601 0.46217,1.556273 0.33604,2.399609 -0.53381,3.569289 -1.1938,1.605302 -3.2593,2.109402 -4.79825,1.171054 z M 45.330616,109.27198 c -0.603428,-1.28834 -0.663337,-1.33567 -1.493449,-1.17995 -0.597437,0.11208 -1.082069,0.0199 -1.567569,-0.29823 -0.386522,-0.25326 -1.19334,-0.52595 -1.792925,-0.60599 -1.337622,-0.17855 -1.490075,-0.72895 -0.81734,-2.95084 0.452466,-1.49439 0.450344,-1.52897 -0.265909,-4.335457 -0.648404,-2.54062 -0.703496,-3.1031 -0.540383,-5.51705 0.427451,-6.32586 2.027423,-10.92807 4.864516,-13.99247 0.786222,-0.84921 1.38353,-1.58057 1.327351,-1.62524 -0.05618,-0.0447 -0.78328,-0.52655 -1.615779,-1.07084 -1.955802,-1.27871 -3.837162,-3.35218 -4.836364,-5.33021 -0.773205,-1.53066 -0.79375,-1.67062 -0.79375,-5.40778 v -3.83646 l 1.237174,-2.94123 c 0.680444,-1.61768 2.011386,-4.48626 2.957647,-6.374622 1.395196,-2.784264 1.984677,-3.670933 3.117898,-4.689795 2.735643,-2.45958 5.897046,-3.589147 10.045208,-3.589147 4.086352,0 6.625143,0.928507 10.195372,3.728735 4.227145,3.315463 6.75852,6.200089 7.737899,8.817709 1.224483,3.27273 1.267769,9.18791 0.0927,12.66857 -1.529172,4.52957 -5.515591,8.53246 -9.917755,9.95873 -0.545703,0.1768 -0.992188,0.37148 -0.992188,0.43262 0,0.0611 0.417851,0.69278 0.928561,1.40365 3.023171,4.20803 4.153606,11.27622 2.98831,18.684777 -0.263554,1.67559 -0.373505,3.61607 -0.299834,5.29167 0.146756,3.33785 0.01058,3.58918 -1.617861,2.98564 -1.095928,-0.40618 -1.319474,-0.40971 -2.56286,-0.0405 -0.74921,0.2225 -1.590437,0.34485 -1.869387,0.2719 -0.278953,-0.0729 -0.848537,0.0633 -1.265748,0.30273 -0.713883,0.40971 -0.790848,0.40613 -1.306693,-0.0607 -0.529518,-0.47921 -0.614132,-0.48051 -2.49192,-0.0383 -1.749896,0.4121 -2.038257,0.41829 -2.890832,0.0621 -0.879695,-0.36756 -0.979662,-0.35965 -1.405811,0.11124 -0.564808,0.62411 -1.109715,0.64397 -1.750774,0.0638 -0.457949,-0.41444 -0.549788,-0.41444 -1.418873,0 -0.511077,0.24371 -1.023901,0.44312 -1.139611,0.44312 -0.115707,0 -0.49327,-0.60399 -0.839025,-1.34219 z m 3.105316,-1.4004 c 0.192096,-0.11081 0.465474,0.0976 0.689933,0.52602 l 0.371769,0.70954 0.610031,-0.82511 0.610031,-0.82511 1.062639,0.78147 c 0.584448,0.42981 1.117687,0.72642 1.184973,0.65914 0.06729,-0.0673 -0.03116,-0.84564 -0.21876,-1.72967 -0.246449,-1.16132 -0.281451,-2.42962 -0.126138,-4.57062 0.459074,-6.328327 0.03357,-7.593487 -2.553898,-7.593487 -1.585458,0 -2.526599,0.49361 -3.416049,1.79165 -0.994865,1.45187 -1.022696,4.970337 -0.08891,11.240377 l 0.14796,0.99349 0.704128,-0.48709 c 0.387271,-0.26789 0.847302,-0.56967 1.022294,-0.6706 z m 9.277094,0.0858 0.488736,0.60357 0.471778,-0.72003 0.471781,-0.72003 0.717527,0.68744 0.717528,0.68743 -0.255177,-1.54295 c -0.201139,-1.2162 -0.161996,-1.91392 0.184841,-3.29468 1.108228,-4.411877 -0.0281,-7.331507 -2.853455,-7.331507 -0.865031,0 -1.25303,0.15824 -1.784072,0.7276 -1.418691,1.52107 -1.504291,2.23873 -0.961374,8.059847 l 0.313703,3.3635 0.999723,-0.56188 0.999725,-0.56187 z m 7.026775,-3.8917 c 0.08308,-2.14643 0.274045,-4.914637 0.42436,-6.151557 0.306594,-2.52293 -0.0087,-6.99628 -0.679106,-9.63614 -0.525172,-2.06787 -1.646563,-4.24579 -2.930763,-5.69203 l -1.04154,-1.17295 -3.022492,-0.0736 c -3.667027,-0.0893 -6.051354,-0.45723 -8.819751,-1.36104 l -2.093089,-0.68333 -1.521791,1.61904 c -3.00046,3.19221 -4.421174,7.22339 -4.663879,13.23344 -0.137062,3.39404 -0.09123,4.00166 0.455189,6.034947 0.60924,2.26707 0.57777,3.33196 -0.154403,5.22477 -0.165291,0.4273 -0.08136,0.46197 0.743696,0.30719 0.782312,-0.14676 0.998043,-0.0773 1.358376,0.4371 l 0.428366,0.61158 0.423638,-0.60482 c 0.410453,-0.58601 0.440076,-0.58995 0.951912,-0.12675 0.523425,0.4737 0.526217,0.46595 0.303969,-0.84311 -0.123372,-0.72665 -0.183414,-4.35495 -0.133429,-8.062887 0.09329,-6.92032 0.284131,-8.20726 1.217073,-8.20726 0.302209,0 0.341214,0.55043 0.217302,3.06643 l -0.151021,3.06642 1.394706,-0.72927 c 2.880727,-1.50629 5.445884,-0.55482 6.445395,2.39073 0.05141,0.15151 0.603814,-0.18423 1.227556,-0.74609 1.093626,-0.98515 1.187146,-1.01668 2.622132,-0.88412 0.818433,0.0756 1.77406,0.22651 2.123614,0.33535 l 0.635559,0.1979 -0.184076,-2.0919 c -0.10124,-1.15055 -0.417007,-3.08357 -0.701702,-4.29561 -0.593391,-2.52625 -0.609523,-2.69109 -0.263353,-2.69109 1.121966,0 2.12471,3.26172 2.131568,6.93355 0.0026,1.35254 0.181121,3.29255 0.396875,4.31115 0.501568,2.367927 0.49385,3.484097 -0.04132,5.974527 -0.43126,2.0069 -0.340513,3.94744 0.184595,3.94744 0.140901,0 0.49077,-0.1465 0.777483,-0.32556 0.431488,-0.26946 0.600183,-0.24667 0.979149,0.1323 0.251817,0.25181 0.536665,0.45784 0.632994,0.45784 0.09633,0 0.243121,-1.75617 0.326205,-3.9026 z m -11.008569,0.52917 c -0.06062,-0.40019 -0.110223,-0.0728 -0.110223,0.7276 0,0.80037 0.0496,1.12779 0.110223,0.7276 0.06062,-0.40018 0.06062,-1.05502 0,-1.4552 z m 9.225523,-25.227697 c 4.201129,-1.2976 7.691578,-4.96252 9.172655,-9.63116 0.476573,-1.50224 0.584885,-2.45181 0.573423,-5.02708 -0.02832,-6.36321 -1.531231,-9.11873 -7.591152,-13.918025 -3.930211,-3.112622 -6.010037,-3.932672 -9.988183,-3.938212 -3.690831,-0.0051 -6.799648,1.117645 -9.267253,3.346976 -1.438058,1.299197 -5.04761,8.543481 -6.337134,12.718481 -0.775665,2.51131 -0.729654,6.30062 0.101034,8.32027 1.607222,3.90766 4.970389,6.34032 10.885168,7.87351 4.440486,1.15102 9.233146,1.24927 12.451442,0.25524 z m -16.691073,-5.55651 c -1.425011,-0.81859 -1.599147,-2.25162 -0.417226,-3.43354 0.837514,-0.83752 1.460693,-0.94966 2.541285,-0.45731 0.743781,0.33889 1.447816,1.45114 1.447816,2.28729 0,1.34193 -2.26061,2.35681 -3.571875,1.60356 z m 17.490044,-2.95452 c -1.921674,-1.10171 -2.569046,-3.62102 -1.479349,-5.75701 1.005916,-1.97175 3.038798,-2.60573 5.121897,-1.59732 1.24239,0.60143 2.283034,2.15841 2.283034,3.41582 0,0.82298 -0.710692,2.43057 -1.401691,3.17064 -1.364359,1.46125 -2.868989,1.71663 -4.523891,0.76787 z m -9.354106,-8.66877 c -0.588121,-0.23662 -0.750388,-0.8675 -0.434713,-1.69014 0.217977,-0.56804 0.63315,-0.53018 0.63315,0.0577 0,0.65206 0.51385,1.11125 1.243542,1.11125 0.334698,0 0.608542,0.11906 0.608542,0.26458 0,0.14552 -0.168857,0.26459 -0.375235,0.26459 -0.20638,0 -0.533802,0.0521 -0.727604,0.11574 -0.193805,0.0637 -0.62026,0.008 -0.947682,-0.12376 z m -6.892901,-5.19908 c -2.161673,-1.0604 -2.019504,-4.354486 0.238323,-5.522052 1.258816,-0.65096 2.550435,-0.493305 3.46691,0.423169 0.710281,0.710282 0.789096,0.936445 0.660482,1.895324 -0.157782,1.176362 -0.766615,2.157489 -1.788642,2.882399 -0.998641,0.70831 -1.627965,0.78675 -2.577073,0.32116 z"
       id="path88" />
  </g>
</svg>
